<?xml version="1.0" standalone="no"?>
<!DOCTYPE svg PUBLIC "-//W3C//DTD SVG 20010904//EN"
 "http://www.w3.org/TR/2001/REC-SVG-20010904/DTD/svg10.dtd">
<svg version="1.0" xmlns="http://www.w3.org/2000/svg"
 width="1065.000000pt" height="1065.000000pt" viewBox="0 0 1065.000000 1065.000000"
 preserveAspectRatio="xMidYMid meet">
<metadata>
Created by potrace 1.14, written by Peter Selinger 2001-2017
</metadata>
<g transform="translate(0.000000,1065.000000) scale(0.100000,-0.100000)"
fill="#000000" stroke="none">
<path d="M5008 10615 c-2 -2 -56 -6 -120 -9 -64 -4 -125 -8 -135 -10 -10 -2
-49 -7 -88 -10 -38 -4 -97 -11 -130 -16 -33 -5 -78 -11 -100 -14 -239 -35
-619 -131 -895 -227 -116 -41 -360 -139 -386 -156 -11 -7 -24 -10 -27 -6 -4 3
-7 1 -7 -5 0 -7 -6 -12 -14 -12 -28 0 -401 -197 -558 -296 -45 -28 -47 -31
-33 -49 20 -25 203 -339 224 -382 8 -18 19 -33 23 -33 4 0 8 -4 8 -9 0 -5 35
-69 78 -142 66 -113 86 -147 109 -188 2 -3 42 19 198 112 91 54 389 195 520
245 132 51 162 63 180 68 6 2 67 21 138 43 70 23 137 43 150 45 12 3 60 14
107 26 47 12 95 24 108 26 12 2 34 6 50 9 101 20 248 44 307 50 39 4 78 9 88
11 16 3 17 -96 17 -1967 l0 -1969 -1871 0 c-1122 0 -1868 4 -1865 9 4 5 8 38
11 73 2 34 5 63 5 63 3 0 8 32 14 87 6 49 45 261 61 328 3 14 8 36 11 50 13
70 99 368 121 420 3 8 7 20 9 25 3 11 51 141 85 230 13 33 28 63 34 67 5 4 6
8 2 8 -4 0 -2 10 5 23 6 12 13 28 14 36 2 8 8 17 14 21 7 4 11 9 10 11 -2 6
10 41 20 59 4 8 35 66 67 128 79 154 91 175 100 187 4 6 17 26 27 45 11 19 40
67 65 105 25 39 44 73 43 78 -1 4 1 7 6 7 4 0 18 18 32 40 14 22 28 40 32 40
5 0 8 4 8 10 0 5 29 49 64 97 l65 87 -22 18 c-12 10 -28 23 -36 29 -7 7 -40
34 -74 61 -82 65 -145 118 -178 148 -15 14 -37 32 -49 40 -12 8 -32 23 -43 34
-40 34 -120 101 -166 139 -25 21 -56 47 -67 58 -12 10 -26 19 -32 19 -6 0 -13
6 -16 13 -5 12 -11 6 -53 -52 -26 -36 -71 -94 -85 -111 -7 -8 -12 -18 -11 -22
2 -5 0 -8 -5 -8 -4 0 -18 -18 -32 -40 -14 -22 -28 -40 -32 -40 -5 0 -8 -5 -8
-10 0 -6 -27 -51 -60 -101 -33 -50 -60 -95 -60 -100 0 -5 -4 -9 -9 -9 -5 0
-12 -11 -15 -25 -4 -14 -11 -25 -16 -25 -6 0 -10 -4 -10 -9 0 -5 -25 -53 -56
-107 -51 -90 -167 -312 -169 -324 0 -3 -9 -19 -18 -37 -9 -18 -17 -38 -17 -44
0 -7 -7 -20 -15 -29 -9 -10 -17 -26 -20 -36 -4 -18 -51 -136 -79 -199 -8 -16
-24 -59 -36 -95 -13 -36 -27 -76 -33 -90 -6 -14 -11 -27 -12 -30 -6 -26 -79
-254 -90 -282 -10 -28 -10 -38 -2 -38 9 0 9 -2 1 -8 -6 -4 -14 -18 -17 -32 -3
-14 -20 -81 -37 -150 -16 -69 -33 -141 -36 -160 -3 -19 -8 -39 -11 -44 -3 -4
-7 -25 -9 -45 -2 -20 -6 -47 -8 -61 -6 -23 -9 -41 -21 -115 -3 -16 -8 -55 -11
-85 -3 -30 -8 -58 -9 -61 -2 -3 -7 -39 -10 -80 -4 -41 -8 -90 -10 -109 -26
-228 -26 -769 -1 -1020 15 -148 24 -225 32 -270 2 -14 7 -43 10 -65 3 -22 8
-51 11 -65 2 -14 6 -39 8 -57 1 -17 5 -35 8 -40 3 -5 8 -29 12 -53 4 -25 13
-74 22 -110 8 -36 17 -76 19 -90 6 -28 48 -190 70 -265 8 -27 16 -57 18 -65 3
-8 5 -15 6 -15 1 0 3 -8 6 -17 2 -10 6 -26 8 -35 3 -10 5 -18 6 -18 1 0 3 -7
5 -15 2 -8 20 -60 40 -115 20 -55 41 -114 46 -131 5 -16 27 -73 50 -125 22
-51 42 -101 44 -110 2 -9 8 -25 14 -35 5 -11 50 -102 99 -204 147 -303 339
-621 509 -842 28 -37 53 -73 55 -80 3 -7 16 -12 30 -11 22 2 27 -2 32 -32 4
-19 11 -35 16 -35 6 0 10 -9 10 -20 0 -11 4 -20 9 -20 5 0 13 -12 19 -28 12
-35 116 -173 179 -237 67 -67 154 -145 164 -145 4 0 9 -4 11 -8 2 -4 25 -23
53 -42 27 -19 55 -40 62 -47 7 -6 22 -15 33 -18 11 -3 20 -10 20 -15 0 -4 8
-10 18 -13 9 -4 40 -20 67 -36 57 -35 253 -133 258 -129 2 2 14 -4 27 -12 46
-29 346 -142 439 -166 9 -2 77 -20 151 -39 141 -37 162 -42 220 -51 19 -3 54
-10 77 -15 23 -5 61 -11 85 -14 24 -3 52 -7 63 -9 11 -2 54 -7 95 -11 41 -4
91 -9 110 -11 45 -5 336 -4 372 1 28 3 99 15 128 20 351 66 827 340 1140 656
120 121 240 260 240 278 0 4 8 16 18 27 25 28 92 131 92 142 0 5 7 15 15 22 8
7 15 21 15 31 0 11 4 19 8 19 9 0 85 176 85 197 0 7 5 13 10 13 6 0 8 3 4 6
-3 3 1 23 8 45 8 21 12 39 10 39 -3 0 0 11 5 25 5 14 13 46 16 72 4 27 7 576
8 1220 l0 1173 1942 0 1942 0 -3 -57 c-2 -32 -4 -58 -5 -58 0 0 -3 -31 -5 -70
-3 -38 -7 -83 -9 -100 -2 -16 -7 -61 -11 -100 -4 -38 -9 -72 -10 -75 -3 -5
-13 -62 -21 -120 -3 -28 -12 -65 -14 -65 -1 0 -3 -9 -4 -20 -8 -53 -16 -95
-25 -118 -5 -14 -7 -27 -5 -30 3 -3 1 -14 -4 -24 -6 -10 -12 -31 -16 -48 -14
-80 -125 -434 -156 -500 -19 -42 -60 -152 -60 -163 0 -7 -4 -12 -10 -12 -5 0
-10 -7 -10 -15 0 -32 -210 -440 -270 -525 -11 -15 -17 -30 -13 -34 3 -3 1 -6
-5 -6 -7 0 -12 -7 -12 -15 0 -8 -4 -15 -10 -15 -5 0 -10 -7 -10 -15 0 -8 -3
-15 -8 -15 -4 0 -12 -9 -17 -19 -6 -10 -23 -40 -39 -65 -16 -26 -27 -48 -25
-50 2 -2 65 -47 139 -101 74 -54 137 -102 138 -107 2 -4 8 -6 13 -2 5 3 9 1 9
-5 0 -5 11 -16 24 -23 13 -7 105 -73 204 -145 99 -73 184 -133 189 -133 8 1
149 214 168 254 5 11 12 23 15 26 27 23 231 414 307 590 31 69 71 166 89 215
19 50 37 97 41 105 3 8 7 18 8 23 2 4 4 9 5 12 1 3 3 8 5 13 1 4 5 16 9 27 23
61 28 74 26 77 -1 2 5 21 14 43 15 40 75 241 81 273 2 9 4 17 5 17 1 0 3 8 5
19 2 10 9 41 16 70 7 28 14 54 15 59 1 4 2 8 4 10 1 1 3 11 5 22 6 31 18 88
22 105 2 8 6 26 8 40 2 14 10 61 19 105 18 95 26 147 41 270 2 11 6 45 10 75
8 60 10 83 22 235 15 192 8 798 -11 905 -3 14 -7 54 -10 89 -4 35 -8 73 -11
85 -2 11 -7 45 -10 75 -3 30 -8 64 -10 75 -7 33 -15 77 -21 122 -5 41 -9 63
-19 104 -3 11 -7 30 -10 43 -2 12 -8 36 -12 52 -4 17 -7 35 -8 40 -2 20 -17
91 -25 120 -5 17 -13 48 -19 70 -6 22 -20 72 -32 110 -11 39 -23 81 -25 94 -3
13 -9 31 -13 40 -5 9 -9 18 -8 21 1 8 -33 112 -48 145 -7 17 -16 41 -20 55 -3
14 -10 34 -14 45 -81 196 -123 302 -124 313 0 6 -4 12 -9 12 -4 0 -8 6 -8 13
0 6 -12 35 -25 62 -14 28 -25 55 -25 62 0 6 -3 13 -7 15 -5 2 -36 59 -71 128
-34 69 -66 132 -71 140 -6 8 -36 60 -68 115 -31 55 -61 103 -66 106 -5 3 -7 9
-5 12 1 4 -5 16 -14 27 -10 11 -18 22 -18 25 0 3 -16 28 -35 55 -19 28 -33 50
-30 50 3 0 -5 12 -19 27 -14 15 -23 30 -21 34 3 4 -2 9 -10 13 -8 3 -15 12
-15 20 0 8 -3 16 -8 18 -4 2 -32 37 -62 78 -29 41 -59 80 -64 86 -6 7 -20 24
-31 40 -22 30 -64 83 -105 131 -8 9 -40 48 -71 85 l-57 67 -39 -37 c-22 -20
-90 -84 -153 -142 -62 -58 -130 -121 -150 -140 -47 -46 -270 -254 -278 -260
-4 -3 -13 -13 -20 -22 -14 -17 -15 -15 49 -88 94 -108 336 -430 322 -430 -3 0
3 -10 14 -22 57 -62 340 -578 326 -592 -4 -3 -1 -6 5 -6 7 0 12 -6 12 -13 0
-8 6 -27 14 -43 51 -106 94 -220 156 -405 59 -181 66 -203 76 -249 11 -47 11
-50 14 -52 2 -3 5 -16 13 -53 3 -11 10 -39 16 -61 6 -23 13 -54 16 -70 2 -16
9 -51 14 -77 6 -26 13 -69 17 -95 3 -26 8 -50 11 -54 2 -5 -859 -8 -1914 -8
l-1919 0 1 1963 c0 1296 3 1961 10 1961 6 -1 37 -5 70 -8 33 -3 67 -8 75 -9 8
-2 38 -7 65 -12 148 -23 497 -109 575 -142 8 -3 17 -7 20 -8 45 -12 210 -73
232 -85 10 -6 23 -10 29 -10 6 0 32 -10 58 -23 25 -13 49 -25 53 -26 4 -1 29
-11 55 -23 27 -12 50 -22 53 -23 32 -8 300 -156 421 -231 47 -30 90 -54 95
-54 9 1 85 115 83 126 0 4 3 10 8 13 13 9 63 89 63 101 0 5 3 10 8 10 4 0 20
24 36 53 16 28 40 66 53 83 13 17 23 34 23 38 0 3 16 29 35 56 19 28 32 50 29
50 -4 0 0 8 8 18 9 9 43 61 76 114 l61 97 -37 23 c-20 12 -38 26 -40 30 -2 4
-7 8 -11 8 -4 0 -60 32 -125 71 -121 73 -393 213 -506 262 -36 16 -72 32 -82
37 -30 16 -271 107 -393 148 -114 39 -239 76 -370 108 -85 22 -78 20 -210 47
-116 24 -143 29 -230 42 -22 3 -65 10 -95 15 -30 5 -80 11 -110 14 -30 3 -80
8 -110 11 -30 3 -82 8 -115 11 -64 5 -572 13 -577 9z m-188 -6943 c0 -1085 -1
-1141 -19 -1193 -23 -68 -76 -174 -107 -216 -13 -17 -24 -34 -24 -37 0 -21
-179 -201 -255 -257 -163 -121 -300 -184 -515 -240 -106 -27 -328 -29 -451 -3
-13 2 -39 7 -58 10 -19 3 -45 10 -58 15 -13 5 -23 7 -23 4 0 -4 -39 7 -175 47
-74 22 -257 88 -315 115 -91 41 -231 110 -285 141 -33 19 -69 40 -80 46 -25
14 -138 89 -145 96 -3 3 -27 23 -55 44 -146 114 -248 260 -254 364 -1 9 -6 10
-19 3 -16 -8 -25 -2 -55 39 -20 27 -37 54 -37 59 0 5 -4 11 -8 13 -10 4 -137
196 -153 232 -7 14 -16 26 -21 26 -4 0 -8 5 -8 10 0 6 -26 56 -59 113 -32 56
-62 112 -65 125 -4 12 -12 22 -17 22 -5 0 -8 3 -7 8 1 4 -14 39 -32 77 -19 39
-35 72 -35 75 0 3 -6 14 -12 25 -24 44 -111 264 -105 269 3 3 -1 6 -8 6 -7 0
-10 3 -7 7 4 3 3 11 -2 17 -4 6 -16 36 -25 66 -9 30 -20 62 -23 70 -3 8 -7 20
-9 25 -1 6 -14 48 -29 95 -14 47 -29 96 -31 109 -3 14 -7 28 -10 33 -3 4 -7
16 -9 26 -1 9 -8 37 -15 62 -7 25 -14 56 -17 70 -2 14 -10 52 -18 85 -7 33
-16 76 -19 95 -3 19 -8 46 -10 60 -3 14 -7 41 -10 60 -3 19 -7 44 -10 55 -2
11 -7 49 -11 85 -4 36 -9 68 -12 73 -2 4 835 7 1861 7 l1866 0 0 -1138z"/>
</g>
</svg>
